<svg xmlns="http://www.w3.org/2000/svg" width="329.067" height="132.816" viewBox="0 0 329.067 132.816"><defs><linearGradient id="a" x1="0.016" y1="0.984" x2="1" gradientUnits="objectBoundingBox"><stop offset="0" stop-color="#28f29c"/><stop offset="1" stop-color="#0cb8e0"/></linearGradient><filter id="b" x="25.706" y="22.338" width="111.42" height="110.479" filterUnits="userSpaceOnUse"><feOffset input="SourceAlpha"/><feGaussianBlur stdDeviation="15" result="c"/><feFlood flood-color="#a8a8a8" flood-opacity="0.302"/><feComposite operator="in" in2="c"/><feComposite in="SourceGraphic"/></filter><linearGradient id="d" x1="0.016" y1="0.984" x2="0.849" y2="0.19" gradientUnits="objectBoundingBox"><stop offset="0" stop-color="#ffcf1b"/><stop offset="1" stop-color="#ff881b"/></linearGradient><filter id="e" x="0" y="17.938" width="114.531" height="114.531" filterUnits="userSpaceOnUse"><feOffset input="SourceAlpha"/><feGaussianBlur stdDeviation="15" result="f"/><feFlood flood-color="#a8a8a8" flood-opacity="0.302"/><feComposite operator="in" in2="f"/><feComposite in="SourceGraphic"/></filter><linearGradient id="g" x1="0.016" y1="0.984" x2="1.236" y2="-0.023" gradientUnits="objectBoundingBox"><stop offset="0" stop-color="#ff9897"/><stop offset="1" stop-color="#f650a0"/></linearGradient><filter id="h" x="23.133" y="0" width="109.419" height="110.401" filterUnits="userSpaceOnUse"><feOffset input="SourceAlpha"/><feGaussianBlur stdDeviation="15" result="i"/><feFlood flood-color="#a8a8a8" flood-opacity="0.302"/><feComposite operator="in" in2="i"/><feComposite in="SourceGraphic"/></filter></defs><g transform="translate(-673.933 -894.637)"><g transform="matrix(0.017, -1, 1, 0.017, 707.64, 980.085)"><g transform="matrix(0.02, 1, -1, 0.02, 84.85, -35.19)" filter="url(#b)"><rect width="20.114" height="21.072" rx="5" transform="matrix(0.02, -1, 1, 0.02, 70.71, 87.45)" fill="url(#a)"/></g><g transform="matrix(0.02, 1, -1, 0.02, 84.85, -35.19)" filter="url(#e)"><rect width="24.114" height="24.114" rx="5" transform="matrix(0.02, -1, 1, 0.02, 45, 87.05)" fill="url(#d)"/></g><g transform="matrix(0.02, 1, -1, 0.02, 84.85, -35.19)" filter="url(#h)"><rect width="20.072" height="19.072" rx="5" transform="matrix(0.02, -1, 1, 0.02, 68.13, 65.07)" fill="url(#g)"/></g></g><text transform="translate(778 905)" fill="#2e2e2e" font-size="80" font-family="TypoGroteskRounded, Typo Grotesk Rounded"><tspan x="0" y="77">dasht</tspan></text></g></svg>
