<?xml version="1.0" standalone="no"?>
<!DOCTYPE svg PUBLIC "-//W3C//DTD SVG 20010904//EN"
 "http://www.w3.org/TR/2001/REC-SVG-20010904/DTD/svg10.dtd">
<svg version="1.0" xmlns="http://www.w3.org/2000/svg"
 width="128.000000pt" height="128.000000pt" viewBox="0 0 128.000000 128.000000"
 preserveAspectRatio="xMidYMid meet">
<metadata>
Created by potrace 1.11, written by Peter Selinger 2001-2013
</metadata>
<g transform="translate(0.000000,128.000000) scale(0.100000,-0.100000)"
fill="#000000" stroke="none">
<path d="M636 1124 c-13 -13 -16 -45 -17 -187 -1 -95 0 -184 1 -199 l2 -28
-251 0 c-214 0 -252 -2 -265 -16 -14 -13 -16 -51 -16 -260 0 -150 4 -253 10
-265 9 -16 22 -19 85 -19 53 0 75 -4 75 -12 0 -9 3 -10 8 -2 4 7 68 11 185 11
214 1 205 -5 203 126 -1 49 2 91 7 94 4 3 3 11 -3 18 -8 9 -8 15 0 20 5 3 10
12 10 18 0 8 -3 8 -9 -1 -5 -8 -7 8 -6 40 1 30 5 60 10 68 5 8 4 11 -1 7 -11
-6 -11 53 -1 70 4 7 3 14 -2 18 -5 3 -9 14 -8 26 1 19 7 20 198 17 109 -2 195
0 193 4 -2 3 1 8 8 10 9 3 13 42 14 139 0 75 4 141 9 149 5 8 4 11 -1 7 -6 -3
-10 22 -10 62 1 104 8 101 -220 101 -162 0 -195 -3 -208 -16z"/>
<path d="M716 619 c2 -4 -3 -9 -11 -13 -11 -4 -15 -22 -15 -69 0 -36 -5 -69
-12 -76 -11 -11 -10 -12 0 -7 10 6 12 -20 11 -127 0 -83 3 -143 10 -156 11
-20 18 -21 229 -21 168 0 222 3 237 14 17 12 18 30 18 220 1 170 -2 209 -14
221 -12 13 -56 16 -236 18 -122 1 -219 -1 -217 -4z"/>
</g>
</svg>
